<?xml version="1.0" encoding="UTF-8" standalone="no"?><svg xmlns="http://www.w3.org/2000/svg" xmlns:xlink="http://www.w3.org/1999/xlink" contentStyleType="text/css" height="912px" preserveAspectRatio="none" style="width:917px;height:912px;background:#FFFFFF;" version="1.1" viewBox="0 0 917 912" width="917px" zoomAndPan="magnify"><defs/><g><!--MD5=[ed6624c6556d5e7b1bd23032162d20b7]
class Client--><g id="elem_Client"><rect codeLine="2" fill="#F1F1F1" height="179.9063" id="Client" rx="2.5" ry="2.5" style="stroke:#181818;stroke-width:0.5;" width="240" x="14.5" y="568"/><ellipse cx="110.25" cy="584" fill="#ADD1B2" rx="11" ry="11" style="stroke:#181818;stroke-width:1.0;"/><path d="M112.7231,590.1431 Q112.1421,590.4419 111.5029,590.5913 Q110.8638,590.7407 110.1582,590.7407 Q107.6514,590.7407 106.3315,589.0889 Q105.0117,587.437 105.0117,584.3159 Q105.0117,581.1865 106.3315,579.5347 Q107.6514,577.8828 110.1582,577.8828 Q110.8638,577.8828 111.5112,578.0322 Q112.1587,578.1816 112.7231,578.4805 L112.7231,581.2031 Q112.0923,580.6221 111.4988,580.3523 Q110.9053,580.0825 110.2744,580.0825 Q108.9297,580.0825 108.2449,581.1492 Q107.5601,582.2158 107.5601,584.3159 Q107.5601,586.4077 108.2449,587.4744 Q108.9297,588.541 110.2744,588.541 Q110.9053,588.541 111.4988,588.2712 Q112.0923,588.0015 112.7231,587.4204 Z " fill="#000000"/><text fill="#000000" font-family="sans-serif" font-size="14" lengthAdjust="spacing" textLength="40" x="130.75" y="589.291">Client</text><line style="stroke:#181818;stroke-width:0.5;" x1="15.5" x2="253.5" y1="600" y2="600"/><ellipse cx="25.5" cy="613.7441" fill="none" rx="3" ry="3" style="stroke:#038048;stroke-width:1.0;"/><text fill="#000000" font-family="sans-serif" font-size="14" lengthAdjust="spacing" textLength="75" x="34.5" y="617.5352">bank: Bank</text><ellipse cx="25.5" cy="630.2324" fill="none" rx="3" ry="3" style="stroke:#038048;stroke-width:1.0;"/><text fill="#000000" font-family="sans-serif" font-size="14" lengthAdjust="spacing" textLength="64" x="34.5" y="634.0234">name: str</text><ellipse cx="25.5" cy="646.7207" fill="none" rx="3" ry="3" style="stroke:#038048;stroke-width:1.0;"/><text fill="#000000" font-family="sans-serif" font-size="14" lengthAdjust="spacing" textLength="86" x="34.5" y="650.5117">surname: str</text><ellipse cx="25.5" cy="663.209" fill="none" rx="3" ry="3" style="stroke:#038048;stroke-width:1.0;"/><text fill="#000000" font-family="sans-serif" font-size="14" lengthAdjust="spacing" textLength="92" x="34.5" y="667">passport: str?</text><ellipse cx="25.5" cy="679.6973" fill="none" rx="3" ry="3" style="stroke:#038048;stroke-width:1.0;"/><text fill="#000000" font-family="sans-serif" font-size="14" lengthAdjust="spacing" textLength="86" x="34.5" y="683.4883">address: str?</text><ellipse cx="25.5" cy="696.1855" fill="none" rx="3" ry="3" style="stroke:#038048;stroke-width:1.0;"/><text fill="#000000" font-family="sans-serif" font-size="14" lengthAdjust="spacing" textLength="200" x="34.5" y="699.9766">accounts: Dict[uuid, Account]</text><line style="stroke:#181818;stroke-width:0.5;" x1="15.5" x2="253.5" y1="706.9297" y2="706.9297"/><ellipse cx="25.5" cy="720.6738" fill="#84BE84" rx="3" ry="3" style="stroke:#038048;stroke-width:1.0;"/><text fill="#000000" font-family="sans-serif" font-size="14" lengthAdjust="spacing" textLength="177" x="34.5" y="724.4648">create_account(): Account</text><ellipse cx="25.5" cy="737.1621" fill="#84BE84" rx="3" ry="3" style="stroke:#038048;stroke-width:1.0;"/><text fill="#000000" font-family="sans-serif" font-size="14" lengthAdjust="spacing" textLength="214" x="34.5" y="740.9531">check_privileges(amount): bool</text></g><!--MD5=[f9a29335b499db729be669fd1bd54958]
class Account--><g id="elem_Account"><rect codeLine="14" fill="#F1F1F1" height="130.4414" id="Account" rx="2.5" ry="2.5" style="stroke:#181818;stroke-width:0.5;" width="189" x="423.5" y="358"/><ellipse cx="485.75" cy="374" fill="#B4A7E5" rx="11" ry="11" style="stroke:#181818;stroke-width:1.0;"/><path d="M482.1777,370.2651 L482.1777,368.1069 L489.5571,368.1069 L489.5571,370.2651 L487.0918,370.2651 L487.0918,378.3418 L489.5571,378.3418 L489.5571,380.5 L482.1777,380.5 L482.1777,378.3418 L484.6431,378.3418 L484.6431,370.2651 Z " fill="#000000"/><text fill="#000000" font-family="sans-serif" font-size="14" font-style="italic" lengthAdjust="spacing" textLength="56" x="506.25" y="379.291">Account</text><line style="stroke:#181818;stroke-width:0.5;" x1="424.5" x2="611.5" y1="390" y2="390"/><ellipse cx="434.5" cy="403.7441" fill="none" rx="3" ry="3" style="stroke:#038048;stroke-width:1.0;"/><text fill="#000000" font-family="sans-serif" font-size="14" lengthAdjust="spacing" textLength="52" x="443.5" y="407.5352">id: uuid</text><ellipse cx="434.5" cy="420.2324" fill="none" rx="3" ry="3" style="stroke:#038048;stroke-width:1.0;"/><text fill="#000000" font-family="sans-serif" font-size="14" lengthAdjust="spacing" textLength="85" x="443.5" y="424.0234">client: Client</text><ellipse cx="434.5" cy="436.7207" fill="none" rx="3" ry="3" style="stroke:#038048;stroke-width:1.0;"/><text fill="#000000" font-family="sans-serif" font-size="14" lengthAdjust="spacing" textLength="79" x="443.5" y="440.5117">balance: int</text><line style="stroke:#181818;stroke-width:0.5;" x1="424.5" x2="611.5" y1="447.4648" y2="447.4648"/><ellipse cx="434.5" cy="461.209" fill="#84BE84" rx="3" ry="3" style="stroke:#038048;stroke-width:1.0;"/><text fill="#000000" font-family="sans-serif" font-size="14" lengthAdjust="spacing" textLength="133" x="443.5" y="465">add(amonut): None</text><ellipse cx="434.5" cy="477.6973" fill="#84BE84" rx="3" ry="3" style="stroke:#038048;stroke-width:1.0;"/><text fill="#000000" font-family="sans-serif" font-size="14" lengthAdjust="spacing" textLength="163" x="443.5" y="481.4883">subtract(amount): None</text></g><!--MD5=[4b7b12a716856b833d8ed6fa8ba6bad4]
class DebitAccount--><g id="elem_DebitAccount"><rect fill="#F1F1F1" height="48" id="DebitAccount" rx="2.5" ry="2.5" style="stroke:#181818;stroke-width:0.5;" width="124" x="289.5" y="634"/><ellipse cx="304.5" cy="650" fill="#ADD1B2" rx="11" ry="11" style="stroke:#181818;stroke-width:1.0;"/><path d="M306.9731,656.1431 Q306.3921,656.4419 305.7529,656.5913 Q305.1138,656.7407 304.4082,656.7407 Q301.9014,656.7407 300.5815,655.0889 Q299.2617,653.437 299.2617,650.3159 Q299.2617,647.1865 300.5815,645.5347 Q301.9014,643.8828 304.4082,643.8828 Q305.1138,643.8828 305.7612,644.0322 Q306.4087,644.1816 306.9731,644.4805 L306.9731,647.2031 Q306.3423,646.6221 305.7488,646.3523 Q305.1553,646.0825 304.5244,646.0825 Q303.1797,646.0825 302.4949,647.1492 Q301.8101,648.2158 301.8101,650.3159 Q301.8101,652.4077 302.4949,653.4744 Q303.1797,654.541 304.5244,654.541 Q305.1553,654.541 305.7488,654.2712 Q306.3423,654.0015 306.9731,653.4204 Z " fill="#000000"/><text fill="#000000" font-family="sans-serif" font-size="14" lengthAdjust="spacing" textLength="92" x="318.5" y="655.291">DebitAccount</text><line style="stroke:#181818;stroke-width:0.5;" x1="290.5" x2="412.5" y1="666" y2="666"/><line style="stroke:#181818;stroke-width:0.5;" x1="290.5" x2="412.5" y1="674" y2="674"/></g><!--MD5=[2ee9443bae8730bad99b85ac06e35dde]
class DepositAccount--><g id="elem_DepositAccount"><rect fill="#F1F1F1" height="48" id="DepositAccount" rx="2.5" ry="2.5" style="stroke:#181818;stroke-width:0.5;" width="140" x="448.5" y="634"/><ellipse cx="463.5" cy="650" fill="#ADD1B2" rx="11" ry="11" style="stroke:#181818;stroke-width:1.0;"/><path d="M465.9731,656.1431 Q465.3921,656.4419 464.7529,656.5913 Q464.1138,656.7407 463.4082,656.7407 Q460.9014,656.7407 459.5815,655.0889 Q458.2617,653.437 458.2617,650.3159 Q458.2617,647.1865 459.5815,645.5347 Q460.9014,643.8828 463.4082,643.8828 Q464.1138,643.8828 464.7612,644.0322 Q465.4087,644.1816 465.9731,644.4805 L465.9731,647.2031 Q465.3423,646.6221 464.7488,646.3523 Q464.1553,646.0825 463.5244,646.0825 Q462.1797,646.0825 461.4949,647.1492 Q460.8101,648.2158 460.8101,650.3159 Q460.8101,652.4077 461.4949,653.4744 Q462.1797,654.541 463.5244,654.541 Q464.1553,654.541 464.7488,654.2712 Q465.3423,654.0015 465.9731,653.4204 Z " fill="#000000"/><text fill="#000000" font-family="sans-serif" font-size="14" lengthAdjust="spacing" textLength="108" x="477.5" y="655.291">DepositAccount</text><line style="stroke:#181818;stroke-width:0.5;" x1="449.5" x2="587.5" y1="666" y2="666"/><line style="stroke:#181818;stroke-width:0.5;" x1="449.5" x2="587.5" y1="674" y2="674"/></g><!--MD5=[8015ad1e5509896b23cbc05465a46216]
class CreditAccount--><g id="elem_CreditAccount"><rect fill="#F1F1F1" height="48" id="CreditAccount" rx="2.5" ry="2.5" style="stroke:#181818;stroke-width:0.5;" width="130" x="623.5" y="634"/><ellipse cx="638.5" cy="650" fill="#ADD1B2" rx="11" ry="11" style="stroke:#181818;stroke-width:1.0;"/><path d="M640.9731,656.1431 Q640.3921,656.4419 639.7529,656.5913 Q639.1138,656.7407 638.4082,656.7407 Q635.9014,656.7407 634.5815,655.0889 Q633.2617,653.437 633.2617,650.3159 Q633.2617,647.1865 634.5815,645.5347 Q635.9014,643.8828 638.4082,643.8828 Q639.1138,643.8828 639.7612,644.0322 Q640.4087,644.1816 640.9731,644.4805 L640.9731,647.2031 Q640.3423,646.6221 639.7488,646.3523 Q639.1553,646.0825 638.5244,646.0825 Q637.1797,646.0825 636.4949,647.1492 Q635.8101,648.2158 635.8101,650.3159 Q635.8101,652.4077 636.4949,653.4744 Q637.1797,654.541 638.5244,654.541 Q639.1553,654.541 639.7488,654.2712 Q640.3423,654.0015 640.9731,653.4204 Z " fill="#000000"/><text fill="#000000" font-family="sans-serif" font-size="14" lengthAdjust="spacing" textLength="98" x="652.5" y="655.291">CreditAccount</text><line style="stroke:#181818;stroke-width:0.5;" x1="624.5" x2="752.5" y1="666" y2="666"/><line style="stroke:#181818;stroke-width:0.5;" x1="624.5" x2="752.5" y1="674" y2="674"/></g><!--MD5=[6131bd7473337e481e60fd42c5290d97]
class CashAccount--><g id="elem_CashAccount"><rect fill="#F1F1F1" height="48" id="CashAccount" rx="2.5" ry="2.5" style="stroke:#181818;stroke-width:0.5;" width="122" x="788.5" y="634"/><ellipse cx="803.5" cy="650" fill="#ADD1B2" rx="11" ry="11" style="stroke:#181818;stroke-width:1.0;"/><path d="M805.9731,656.1431 Q805.3921,656.4419 804.7529,656.5913 Q804.1138,656.7407 803.4082,656.7407 Q800.9014,656.7407 799.5815,655.0889 Q798.2617,653.437 798.2617,650.3159 Q798.2617,647.1865 799.5815,645.5347 Q800.9014,643.8828 803.4082,643.8828 Q804.1138,643.8828 804.7612,644.0322 Q805.4087,644.1816 805.9731,644.4805 L805.9731,647.2031 Q805.3423,646.6221 804.7488,646.3523 Q804.1553,646.0825 803.5244,646.0825 Q802.1797,646.0825 801.4949,647.1492 Q800.8101,648.2158 800.8101,650.3159 Q800.8101,652.4077 801.4949,653.4744 Q802.1797,654.541 803.5244,654.541 Q804.1553,654.541 804.7488,654.2712 Q805.3423,654.0015 805.9731,653.4204 Z " fill="#000000"/><text fill="#000000" font-family="sans-serif" font-size="14" lengthAdjust="spacing" textLength="90" x="817.5" y="655.291">CashAccount</text><line style="stroke:#181818;stroke-width:0.5;" x1="789.5" x2="909.5" y1="666" y2="666"/><line style="stroke:#181818;stroke-width:0.5;" x1="789.5" x2="909.5" y1="674" y2="674"/></g><!--MD5=[f55d592c5130daf0ceebcd2d990036d6]
class Bank--><g id="elem_Bank"><rect codeLine="31" fill="#F1F1F1" height="97.4648" id="Bank" rx="2.5" ry="2.5" style="stroke:#181818;stroke-width:0.5;" width="255" x="7" y="808"/><ellipse cx="113.75" cy="824" fill="#ADD1B2" rx="11" ry="11" style="stroke:#181818;stroke-width:1.0;"/><path d="M116.2231,830.1431 Q115.6421,830.4419 115.0029,830.5913 Q114.3638,830.7407 113.6582,830.7407 Q111.1514,830.7407 109.8315,829.0889 Q108.5117,827.437 108.5117,824.3159 Q108.5117,821.1865 109.8315,819.5347 Q111.1514,817.8828 113.6582,817.8828 Q114.3638,817.8828 115.0112,818.0322 Q115.6587,818.1816 116.2231,818.4805 L116.2231,821.2031 Q115.5923,820.6221 114.9988,820.3523 Q114.4053,820.0825 113.7744,820.0825 Q112.4297,820.0825 111.7449,821.1492 Q111.0601,822.2158 111.0601,824.3159 Q111.0601,826.4077 111.7449,827.4744 Q112.4297,828.541 113.7744,828.541 Q114.4053,828.541 114.9988,828.2712 Q115.5923,828.0015 116.2231,827.4204 Z " fill="#000000"/><text fill="#000000" font-family="sans-serif" font-size="14" lengthAdjust="spacing" textLength="33" x="134.25" y="829.291">Bank</text><line style="stroke:#181818;stroke-width:0.5;" x1="8" x2="261" y1="840" y2="840"/><ellipse cx="18" cy="853.7441" fill="none" rx="3" ry="3" style="stroke:#038048;stroke-width:1.0;"/><text fill="#000000" font-family="sans-serif" font-size="14" lengthAdjust="spacing" textLength="200" x="27" y="857.5352">accounts: Dict[uuid, Account]</text><ellipse cx="18" cy="870.2324" fill="none" rx="3" ry="3" style="stroke:#038048;stroke-width:1.0;"/><text fill="#000000" font-family="sans-serif" font-size="14" lengthAdjust="spacing" textLength="216" x="27" y="874.0234">transaction_list: TransactionList</text><ellipse cx="18" cy="886.7207" fill="none" rx="3" ry="3" style="stroke:#038048;stroke-width:1.0;"/><text fill="#000000" font-family="sans-serif" font-size="14" lengthAdjust="spacing" textLength="229" x="27" y="890.5117">unathorized_withdrawal_limit: int</text><line style="stroke:#181818;stroke-width:0.5;" x1="8" x2="261" y1="897.4648" y2="897.4648"/></g><!--MD5=[4555bb1b0911a5adf28ce6dbe60fed2e]
class Transaction--><g id="elem_Transaction"><rect codeLine="39" fill="#F1F1F1" height="130.4414" id="Transaction" rx="2.5" ry="2.5" style="stroke:#181818;stroke-width:0.5;" width="181" x="428" y="148"/><ellipse cx="473.75" cy="164" fill="#ADD1B2" rx="11" ry="11" style="stroke:#181818;stroke-width:1.0;"/><path d="M476.2231,170.1431 Q475.6421,170.4419 475.0029,170.5913 Q474.3638,170.7407 473.6582,170.7407 Q471.1514,170.7407 469.8315,169.0889 Q468.5117,167.437 468.5117,164.3159 Q468.5117,161.1865 469.8315,159.5347 Q471.1514,157.8828 473.6582,157.8828 Q474.3638,157.8828 475.0112,158.0322 Q475.6587,158.1816 476.2231,158.4805 L476.2231,161.2031 Q475.5923,160.6221 474.9988,160.3523 Q474.4053,160.0825 473.7744,160.0825 Q472.4297,160.0825 471.7449,161.1492 Q471.0601,162.2158 471.0601,164.3159 Q471.0601,166.4077 471.7449,167.4744 Q472.4297,168.541 473.7744,168.541 Q474.4053,168.541 474.9988,168.2712 Q475.5923,168.0015 476.2231,167.4204 Z " fill="#000000"/><text fill="#000000" font-family="sans-serif" font-size="14" lengthAdjust="spacing" textLength="81" x="494.25" y="169.291">Transaction</text><line style="stroke:#181818;stroke-width:0.5;" x1="429" x2="608" y1="180" y2="180"/><ellipse cx="439" cy="193.7441" fill="none" rx="3" ry="3" style="stroke:#038048;stroke-width:1.0;"/><text fill="#000000" font-family="sans-serif" font-size="14" lengthAdjust="spacing" textLength="100" x="448" y="197.5352">From: Account</text><ellipse cx="439" cy="210.2324" fill="none" rx="3" ry="3" style="stroke:#038048;stroke-width:1.0;"/><text fill="#000000" font-family="sans-serif" font-size="14" lengthAdjust="spacing" textLength="82" x="448" y="214.0234">To: Account</text><ellipse cx="439" cy="226.7207" fill="none" rx="3" ry="3" style="stroke:#038048;stroke-width:1.0;"/><text fill="#000000" font-family="sans-serif" font-size="14" lengthAdjust="spacing" textLength="79" x="448" y="230.5117">amount: int</text><ellipse cx="439" cy="243.209" fill="none" rx="3" ry="3" style="stroke:#038048;stroke-width:1.0;"/><text fill="#000000" font-family="sans-serif" font-size="14" lengthAdjust="spacing" textLength="98" x="448" y="247">date: datetime</text><line style="stroke:#181818;stroke-width:0.5;" x1="429" x2="608" y1="253.9531" y2="253.9531"/><ellipse cx="439" cy="267.6973" fill="#84BE84" rx="3" ry="3" style="stroke:#038048;stroke-width:1.0;"/><text fill="#000000" font-family="sans-serif" font-size="14" lengthAdjust="spacing" textLength="155" x="448" y="271.4883">perform(): Transaction</text></g><!--MD5=[4c7a4844927343388be36e4ab2f98062]
class TransactionList--><g id="elem_TransactionList"><rect codeLine="50" fill="#F1F1F1" height="80.9766" id="TransactionList" rx="2.5" ry="2.5" style="stroke:#181818;stroke-width:0.5;" width="230" x="403.5" y="7"/><ellipse cx="462.25" cy="23" fill="#ADD1B2" rx="11" ry="11" style="stroke:#181818;stroke-width:1.0;"/><path d="M464.7231,29.1431 Q464.1421,29.4419 463.5029,29.5913 Q462.8638,29.7407 462.1582,29.7407 Q459.6514,29.7407 458.3315,28.0889 Q457.0117,26.437 457.0117,23.3159 Q457.0117,20.1865 458.3315,18.5347 Q459.6514,16.8828 462.1582,16.8828 Q462.8638,16.8828 463.5112,17.0322 Q464.1587,17.1816 464.7231,17.4805 L464.7231,20.2031 Q464.0923,19.6221 463.4988,19.3523 Q462.9053,19.0825 462.2744,19.0825 Q460.9297,19.0825 460.2449,20.1492 Q459.5601,21.2158 459.5601,23.3159 Q459.5601,25.4077 460.2449,26.4744 Q460.9297,27.541 462.2744,27.541 Q462.9053,27.541 463.4988,27.2712 Q464.0923,27.0015 464.7231,26.4204 Z " fill="#000000"/><text fill="#000000" font-family="sans-serif" font-size="14" lengthAdjust="spacing" textLength="104" x="482.75" y="28.291">TransactionList</text><line style="stroke:#181818;stroke-width:0.5;" x1="404.5" x2="632.5" y1="39" y2="39"/><ellipse cx="414.5" cy="52.7441" fill="none" rx="3" ry="3" style="stroke:#038048;stroke-width:1.0;"/><text fill="#000000" font-family="sans-serif" font-size="14" lengthAdjust="spacing" textLength="204" x="423.5" y="56.5352">transactions: Set[Transaction]</text><line style="stroke:#181818;stroke-width:0.5;" x1="404.5" x2="632.5" y1="63.4883" y2="63.4883"/><ellipse cx="414.5" cy="77.2324" fill="#84BE84" rx="3" ry="3" style="stroke:#038048;stroke-width:1.0;"/><text fill="#000000" font-family="sans-serif" font-size="14" lengthAdjust="spacing" textLength="183" x="423.5" y="81.0234">append(transaction): None</text></g><!--MD5=[468532d66a291568ccb9dd1ed2ab1262]
reverse link Account to Client--><g id="link_Account_Client"><path codeLine="23" d="M418.28,480.96 C373.13,507 319.32,538.55 271.5,568 C266.07,571.35 260.53,574.79 254.95,578.29 " fill="none" id="Account-backto-Client" style="stroke:#181818;stroke-width:1.0;"/><polygon fill="#181818" points="422.43,478.57,412.6359,479.6074,418.1003,481.0707,416.637,486.535,422.43,478.57" style="stroke:#181818;stroke-width:1.0;"/></g><!--MD5=[5316e6964bb917da2e29ec06db2a4839]
reverse link Account to DebitAccount--><g id="link_Account_DebitAccount"><path codeLine="25" d="M460.28,505.24 C427.75,550.61 389.58,603.87 368.2,633.7 " fill="none" id="Account-backto-DebitAccount" style="stroke:#181818;stroke-width:1.0;"/><polygon fill="none" points="454.42,501.38,471.76,489.21,465.8,509.54,454.42,501.38" style="stroke:#181818;stroke-width:1.0;"/></g><!--MD5=[3980083d2a82836220e3818e53d08ad5]
reverse link Account to DepositAccount--><g id="link_Account_DepositAccount"><path codeLine="26" d="M518.5,509.46 C518.5,553.88 518.5,604.79 518.5,633.7 " fill="none" id="Account-backto-DepositAccount" style="stroke:#181818;stroke-width:1.0;"/><polygon fill="none" points="511.5,509.49,518.5,489.49,525.5,509.49,511.5,509.49" style="stroke:#181818;stroke-width:1.0;"/></g><!--MD5=[36f3e4cc4c35ae4b51a1d80c48a97294]
reverse link Account to CreditAccount--><g id="link_Account_CreditAccount"><path codeLine="27" d="M577.77,505.24 C610.88,550.61 649.73,603.87 671.5,633.7 " fill="none" id="Account-backto-CreditAccount" style="stroke:#181818;stroke-width:1.0;"/><polygon fill="none" points="572.2,509.48,566.07,489.2,583.51,501.23,572.2,509.48" style="stroke:#181818;stroke-width:1.0;"/></g><!--MD5=[454b65c063555c30b33cacf01cddc11a]
reverse link Account to CashAccount--><g id="link_Account_CashAccount"><path codeLine="28" d="M631.34,477.79 C677.07,502.18 729,533.33 771.5,568 C795.38,587.48 818.05,614.69 832.74,633.88 " fill="none" id="Account-backto-CashAccount" style="stroke:#181818;stroke-width:1.0;"/><polygon fill="none" points="628.31,484.11,613.84,468.63,634.81,471.7,628.31,484.11" style="stroke:#181818;stroke-width:1.0;"/></g><!--MD5=[61abc0e6878da33f7de6453297d54f72]
reverse link Client to Bank--><g id="link_Client_Bank"><path codeLine="37" d="M134.5,754.59 C134.5,773.05 134.5,791.64 134.5,807.74 " fill="none" id="Client-backto-Bank" style="stroke:#181818;stroke-width:1.0;"/><polygon fill="#181818" points="134.5,749.85,130.5,758.85,134.5,754.85,138.5,758.85,134.5,749.85" style="stroke:#181818;stroke-width:1.0;"/></g><!--MD5=[ea3341ddf5b8bc2bd33f110c0cbea934]
reverse link Transaction to Account--><g id="link_Transaction_Account"><path codeLine="48" d="M518.5,284.71 C518.5,308.55 518.5,335 518.5,358.27 " fill="none" id="Transaction-backto-Account" style="stroke:#181818;stroke-width:1.0;"/><polygon fill="#181818" points="518.5,279.9,514.5,288.9,518.5,284.9,522.5,288.9,518.5,279.9" style="stroke:#181818;stroke-width:1.0;"/><text fill="#000000" font-family="sans-serif" font-size="13" lengthAdjust="spacing" textLength="8" x="510.0953" y="347.4792">2</text></g><!--MD5=[2416cfaa8709f19509bdf685390a8bd0]
reverse link TransactionList to Transaction--><g id="link_TransactionList_Transaction"><path codeLine="55" d="M518.5,102.87 C518.5,117.19 518.5,132.78 518.5,147.57 " fill="none" id="TransactionList-backto-Transaction" style="stroke:#181818;stroke-width:1.0;"/><polygon fill="#181818" points="518.5,90.01,514.5,96.01,518.5,102.01,522.5,96.01,518.5,90.01" style="stroke:#181818;stroke-width:1.0;"/></g><!--MD5=[cf28c2b338972f1c2781d5aa86792eb8]
@startuml classes_uml

class Client {
    + bank: Bank
    + name: str
    + surname: str
    + passport: str?
    + address: str?
    + accounts: Dict[uuid, Account]

    + create_account(): Account
    + check_privileges(amount): bool
}

interface Account {
    + id: uuid
    + client: Client
    + balance: int

    + add(amonut): None
    + subtract(amount): None
}

Account <- - Client

Account <|- - DebitAccount
Account <|- - DepositAccount
Account <|- - CreditAccount
Account <|- - CashAccount


class Bank {
    + accounts: Dict[uuid, Account]
    + transaction_list: TransactionList
    + unathorized_withdrawal_limit: int
}

Client <- - Bank

class Transaction {
    + From: Account
    + To: Account
    + amount: int
    + date: datetime

    + perform(): Transaction
}

Transaction <- - "2" Account

class TransactionList {
    + transactions: Set[Transaction]
    + append(transaction): None
}

TransactionList *- - Transaction

@enduml

PlantUML version 1.2022.7(Mon Aug 22 20:01:30 MSK 2022)
(GPL source distribution)
Java Runtime: OpenJDK Runtime Environment
JVM: OpenJDK 64-Bit Server VM
Default Encoding: UTF-8
Language: ru
Country: RU
--></g></svg>