<?xml version="1.0" encoding="UTF-8" standalone="no"?><svg xmlns="http://www.w3.org/2000/svg" xmlns:xlink="http://www.w3.org/1999/xlink" contentStyleType="text/css" height="1102px" preserveAspectRatio="none" style="width:1074px;height:1102px;background:#FFFFFF;" version="1.1" viewBox="0 0 1074 1102" width="1074px" zoomAndPan="magnify"><defs/><g><!--MD5=[738e08bf1590c50685bf9f5bbdae12b2]
class ClientFacade--><g id="elem_ClientFacade"><rect codeLine="2" fill="#F1F1F1" height="130.4414" id="ClientFacade" rx="2.5" ry="2.5" style="stroke:#181818;stroke-width:0.5;" width="479" x="266.5" y="7"/><ellipse cx="457.75" cy="23" fill="#ADD1B2" rx="11" ry="11" style="stroke:#181818;stroke-width:1.0;"/><path d="M460.2231,29.1431 Q459.6421,29.4419 459.0029,29.5913 Q458.3638,29.7407 457.6582,29.7407 Q455.1514,29.7407 453.8315,28.0889 Q452.5117,26.437 452.5117,23.3159 Q452.5117,20.1865 453.8315,18.5347 Q455.1514,16.8828 457.6582,16.8828 Q458.3638,16.8828 459.0112,17.0322 Q459.6587,17.1816 460.2231,17.4805 L460.2231,20.2031 Q459.5923,19.6221 458.9988,19.3523 Q458.4053,19.0825 457.7744,19.0825 Q456.4297,19.0825 455.7449,20.1492 Q455.0601,21.2158 455.0601,23.3159 Q455.0601,25.4077 455.7449,26.4744 Q456.4297,27.541 457.7744,27.541 Q458.4053,27.541 458.9988,27.2712 Q459.5923,27.0015 460.2231,26.4204 Z " fill="#000000"/><text fill="#000000" font-family="sans-serif" font-size="14" lengthAdjust="spacing" textLength="88" x="478.25" y="28.291">ClientFacade</text><line style="stroke:#181818;stroke-width:0.5;" x1="267.5" x2="744.5" y1="39" y2="39"/><ellipse cx="277.5" cy="52.7441" fill="none" rx="3" ry="3" style="stroke:#038048;stroke-width:1.0;"/><text fill="#000000" font-family="sans-serif" font-size="14" lengthAdjust="spacing" textLength="85" x="286.5" y="56.5352">client: Client</text><line style="stroke:#181818;stroke-width:0.5;" x1="267.5" x2="744.5" y1="63.4883" y2="63.4883"/><ellipse cx="277.5" cy="77.2324" fill="#84BE84" rx="3" ry="3" style="stroke:#038048;stroke-width:1.0;"/><text fill="#000000" font-family="sans-serif" font-size="14" lengthAdjust="spacing" textLength="177" x="286.5" y="81.0234">create_account(): Account</text><ellipse cx="277.5" cy="93.7207" fill="#84BE84" rx="3" ry="3" style="stroke:#038048;stroke-width:1.0;"/><text fill="#000000" font-family="sans-serif" font-size="14" lengthAdjust="spacing" textLength="215" x="286.5" y="97.5117">withdraw(amount): Transaction</text><ellipse cx="277.5" cy="110.209" fill="#84BE84" rx="3" ry="3" style="stroke:#038048;stroke-width:1.0;"/><text fill="#000000" font-family="sans-serif" font-size="14" lengthAdjust="spacing" textLength="203" x="286.5" y="114">deposit(amount): Transaction</text><ellipse cx="277.5" cy="126.6973" fill="#84BE84" rx="3" ry="3" style="stroke:#038048;stroke-width:1.0;"/><text fill="#000000" font-family="sans-serif" font-size="14" lengthAdjust="spacing" textLength="453" x="286.5" y="130.4883">transfer(amount, from_account, to_account_id, bank): Transaction</text></g><!--MD5=[ed6624c6556d5e7b1bd23032162d20b7]
class Client--><g id="elem_Client"><rect codeLine="13" fill="#F1F1F1" height="179.9063" id="Client" rx="2.5" ry="2.5" style="stroke:#181818;stroke-width:0.5;" width="430" x="291" y="197"/><ellipse cx="481.75" cy="213" fill="#ADD1B2" rx="11" ry="11" style="stroke:#181818;stroke-width:1.0;"/><path d="M484.2231,219.1431 Q483.6421,219.4419 483.0029,219.5913 Q482.3638,219.7407 481.6582,219.7407 Q479.1514,219.7407 477.8315,218.0889 Q476.5117,216.437 476.5117,213.3159 Q476.5117,210.1865 477.8315,208.5347 Q479.1514,206.8828 481.6582,206.8828 Q482.3638,206.8828 483.0112,207.0322 Q483.6587,207.1816 484.2231,207.4805 L484.2231,210.2031 Q483.5923,209.6221 482.9988,209.3523 Q482.4053,209.0825 481.7744,209.0825 Q480.4297,209.0825 479.7449,210.1492 Q479.0601,211.2158 479.0601,213.3159 Q479.0601,215.4077 479.7449,216.4744 Q480.4297,217.541 481.7744,217.541 Q482.4053,217.541 482.9988,217.2712 Q483.5923,217.0015 484.2231,216.4204 Z " fill="#000000"/><text fill="#000000" font-family="sans-serif" font-size="14" lengthAdjust="spacing" textLength="40" x="502.25" y="218.291">Client</text><line style="stroke:#181818;stroke-width:0.5;" x1="292" x2="720" y1="229" y2="229"/><ellipse cx="302" cy="242.7441" fill="none" rx="3" ry="3" style="stroke:#038048;stroke-width:1.0;"/><text fill="#000000" font-family="sans-serif" font-size="14" lengthAdjust="spacing" textLength="75" x="311" y="246.5352">bank: Bank</text><ellipse cx="302" cy="259.2324" fill="none" rx="3" ry="3" style="stroke:#038048;stroke-width:1.0;"/><text fill="#000000" font-family="sans-serif" font-size="14" lengthAdjust="spacing" textLength="64" x="311" y="263.0234">name: str</text><ellipse cx="302" cy="275.7207" fill="none" rx="3" ry="3" style="stroke:#038048;stroke-width:1.0;"/><text fill="#000000" font-family="sans-serif" font-size="14" lengthAdjust="spacing" textLength="86" x="311" y="279.5117">surname: str</text><ellipse cx="302" cy="292.209" fill="none" rx="3" ry="3" style="stroke:#038048;stroke-width:1.0;"/><text fill="#000000" font-family="sans-serif" font-size="14" lengthAdjust="spacing" textLength="135" x="311" y="296">passport: str | None</text><ellipse cx="302" cy="308.6973" fill="none" rx="3" ry="3" style="stroke:#038048;stroke-width:1.0;"/><text fill="#000000" font-family="sans-serif" font-size="14" lengthAdjust="spacing" textLength="129" x="311" y="312.4883">address: str | None</text><ellipse cx="302" cy="325.1855" fill="none" rx="3" ry="3" style="stroke:#038048;stroke-width:1.0;"/><text fill="#000000" font-family="sans-serif" font-size="14" lengthAdjust="spacing" textLength="200" x="311" y="328.9766">accounts: Dict[uuid, Account]</text><line style="stroke:#181818;stroke-width:0.5;" x1="292" x2="720" y1="335.9297" y2="335.9297"/><ellipse cx="302" cy="349.6738" fill="#84BE84" rx="3" ry="3" style="stroke:#038048;stroke-width:1.0;"/><text fill="#000000" font-family="sans-serif" font-size="14" lengthAdjust="spacing" textLength="177" x="311" y="353.4648">create_account(): Account</text><ellipse cx="302" cy="366.1621" fill="#84BE84" rx="3" ry="3" style="stroke:#038048;stroke-width:1.0;"/><text fill="#000000" font-family="sans-serif" font-size="14" lengthAdjust="spacing" textLength="404" x="311" y="369.9531">check_withdraw_permissions(transaction): BoolWithReason</text></g><!--MD5=[f9a29335b499db729be669fd1bd54958]
class Account--><g id="elem_Account"><rect codeLine="25" fill="#F1F1F1" height="113.9531" id="Account" rx="2.5" ry="2.5" style="stroke:#181818;stroke-width:0.5;" width="430" x="291" y="598.5"/><ellipse cx="473.75" cy="614.5" fill="#B4A7E5" rx="11" ry="11" style="stroke:#181818;stroke-width:1.0;"/><path d="M470.1777,610.7651 L470.1777,608.6069 L477.5571,608.6069 L477.5571,610.7651 L475.0918,610.7651 L475.0918,618.8418 L477.5571,618.8418 L477.5571,621 L470.1777,621 L470.1777,618.8418 L472.6431,618.8418 L472.6431,610.7651 Z " fill="#000000"/><text fill="#000000" font-family="sans-serif" font-size="14" font-style="italic" lengthAdjust="spacing" textLength="56" x="494.25" y="619.791">Account</text><line style="stroke:#181818;stroke-width:0.5;" x1="292" x2="720" y1="630.5" y2="630.5"/><ellipse cx="302" cy="644.2441" fill="none" rx="3" ry="3" style="stroke:#038048;stroke-width:1.0;"/><text fill="#000000" font-family="sans-serif" font-size="14" lengthAdjust="spacing" textLength="52" x="311" y="648.0352">id: uuid</text><ellipse cx="302" cy="660.7324" fill="none" rx="3" ry="3" style="stroke:#038048;stroke-width:1.0;"/><text fill="#000000" font-family="sans-serif" font-size="14" lengthAdjust="spacing" textLength="85" x="311" y="664.5234">client: Client</text><ellipse cx="302" cy="677.2207" fill="none" rx="3" ry="3" style="stroke:#038048;stroke-width:1.0;"/><text fill="#000000" font-family="sans-serif" font-size="14" lengthAdjust="spacing" textLength="79" x="311" y="681.0117">balance: int</text><line style="stroke:#181818;stroke-width:0.5;" x1="292" x2="720" y1="687.9648" y2="687.9648"/><ellipse cx="302" cy="701.709" fill="#84BE84" rx="3" ry="3" style="stroke:#038048;stroke-width:1.0;"/><text fill="#000000" font-family="sans-serif" font-size="14" lengthAdjust="spacing" textLength="404" x="311" y="705.5">check_withdraw_permissions(transaction): BoolWithReason</text></g><!--MD5=[4b7b12a716856b833d8ed6fa8ba6bad4]
class DebitAccount--><g id="elem_DebitAccount"><rect fill="#F1F1F1" height="48" id="DebitAccount" rx="2.5" ry="2.5" style="stroke:#181818;stroke-width:0.5;" width="124" x="7" y="807.5"/><ellipse cx="22" cy="823.5" fill="#ADD1B2" rx="11" ry="11" style="stroke:#181818;stroke-width:1.0;"/><path d="M24.4731,829.6431 Q23.8921,829.9419 23.2529,830.0913 Q22.6138,830.2407 21.9082,830.2407 Q19.4014,830.2407 18.0815,828.5889 Q16.7617,826.937 16.7617,823.8159 Q16.7617,820.6865 18.0815,819.0347 Q19.4014,817.3828 21.9082,817.3828 Q22.6138,817.3828 23.2612,817.5322 Q23.9087,817.6816 24.4731,817.9805 L24.4731,820.7031 Q23.8423,820.1221 23.2488,819.8523 Q22.6553,819.5825 22.0244,819.5825 Q20.6797,819.5825 19.9949,820.6492 Q19.3101,821.7158 19.3101,823.8159 Q19.3101,825.9077 19.9949,826.9744 Q20.6797,828.041 22.0244,828.041 Q22.6553,828.041 23.2488,827.7712 Q23.8423,827.5015 24.4731,826.9204 Z " fill="#000000"/><text fill="#000000" font-family="sans-serif" font-size="14" lengthAdjust="spacing" textLength="92" x="36" y="828.791">DebitAccount</text><line style="stroke:#181818;stroke-width:0.5;" x1="8" x2="130" y1="839.5" y2="839.5"/><line style="stroke:#181818;stroke-width:0.5;" x1="8" x2="130" y1="847.5" y2="847.5"/></g><!--MD5=[2ee9443bae8730bad99b85ac06e35dde]
class DepositAccount--><g id="elem_DepositAccount"><rect codeLine="38" fill="#F1F1F1" height="64.4883" id="DepositAccount" rx="2.5" ry="2.5" style="stroke:#181818;stroke-width:0.5;" width="143" x="166.5" y="799.5"/><ellipse cx="182.85" cy="815.5" fill="#ADD1B2" rx="11" ry="11" style="stroke:#181818;stroke-width:1.0;"/><path d="M185.3231,821.6431 Q184.7421,821.9419 184.1029,822.0913 Q183.4638,822.2407 182.7582,822.2407 Q180.2514,822.2407 178.9315,820.5889 Q177.6117,818.937 177.6117,815.8159 Q177.6117,812.6865 178.9315,811.0347 Q180.2514,809.3828 182.7582,809.3828 Q183.4638,809.3828 184.1112,809.5322 Q184.7587,809.6816 185.3231,809.9805 L185.3231,812.7031 Q184.6923,812.1221 184.0988,811.8523 Q183.5053,811.5825 182.8744,811.5825 Q181.5297,811.5825 180.8449,812.6492 Q180.1601,813.7158 180.1601,815.8159 Q180.1601,817.9077 180.8449,818.9744 Q181.5297,820.041 182.8744,820.041 Q183.5053,820.041 184.0988,819.7712 Q184.6923,819.5015 185.3231,818.9204 Z " fill="#000000"/><text fill="#000000" font-family="sans-serif" font-size="14" lengthAdjust="spacing" textLength="108" x="197.15" y="820.791">DepositAccount</text><line style="stroke:#181818;stroke-width:0.5;" x1="167.5" x2="308.5" y1="831.5" y2="831.5"/><text fill="#000000" font-family="sans-serif" font-size="14" lengthAdjust="spacing" textLength="131" x="172.5" y="849.0352">end_date: datetime</text><line style="stroke:#181818;stroke-width:0.5;" x1="167.5" x2="308.5" y1="855.9883" y2="855.9883"/></g><!--MD5=[8015ad1e5509896b23cbc05465a46216]
class CreditAccount--><g id="elem_CreditAccount"><rect codeLine="42" fill="#F1F1F1" height="80.9766" id="CreditAccount" rx="2.5" ry="2.5" style="stroke:#181818;stroke-width:0.5;" width="151" x="344.5" y="791"/><ellipse cx="368.95" cy="807" fill="#ADD1B2" rx="11" ry="11" style="stroke:#181818;stroke-width:1.0;"/><path d="M371.4231,813.1431 Q370.8421,813.4419 370.2029,813.5913 Q369.5638,813.7407 368.8582,813.7407 Q366.3514,813.7407 365.0315,812.0889 Q363.7117,810.437 363.7117,807.3159 Q363.7117,804.1865 365.0315,802.5347 Q366.3514,800.8828 368.8582,800.8828 Q369.5638,800.8828 370.2112,801.0322 Q370.8587,801.1816 371.4231,801.4805 L371.4231,804.2031 Q370.7923,803.6221 370.1988,803.3523 Q369.6053,803.0825 368.9744,803.0825 Q367.6297,803.0825 366.9449,804.1492 Q366.2601,805.2158 366.2601,807.3159 Q366.2601,809.4077 366.9449,810.4744 Q367.6297,811.541 368.9744,811.541 Q369.6053,811.541 370.1988,811.2712 Q370.7923,811.0015 371.4231,810.4204 Z " fill="#000000"/><text fill="#000000" font-family="sans-serif" font-size="14" lengthAdjust="spacing" textLength="98" x="385.05" y="812.291">CreditAccount</text><line style="stroke:#181818;stroke-width:0.5;" x1="345.5" x2="494.5" y1="823" y2="823"/><ellipse cx="355.5" cy="836.7441" fill="none" rx="3" ry="3" style="stroke:#038048;stroke-width:1.0;"/><text fill="#000000" font-family="sans-serif" font-size="14" lengthAdjust="spacing" textLength="102" x="364.5" y="840.5352">credit_limit: int</text><ellipse cx="355.5" cy="853.2324" fill="none" rx="3" ry="3" style="stroke:#038048;stroke-width:1.0;"/><text fill="#000000" font-family="sans-serif" font-size="14" lengthAdjust="spacing" textLength="125" x="364.5" y="857.0234">interest_rate: float</text><line style="stroke:#181818;stroke-width:0.5;" x1="345.5" x2="494.5" y1="863.9766" y2="863.9766"/></g><!--MD5=[6131bd7473337e481e60fd42c5290d97]
class CashAccount--><g id="elem_CashAccount"><rect fill="#F1F1F1" height="48" id="CashAccount" rx="2.5" ry="2.5" style="stroke:#181818;stroke-width:0.5;" width="122" x="531" y="807.5"/><ellipse cx="546" cy="823.5" fill="#ADD1B2" rx="11" ry="11" style="stroke:#181818;stroke-width:1.0;"/><path d="M548.4731,829.6431 Q547.8921,829.9419 547.2529,830.0913 Q546.6138,830.2407 545.9082,830.2407 Q543.4014,830.2407 542.0815,828.5889 Q540.7617,826.937 540.7617,823.8159 Q540.7617,820.6865 542.0815,819.0347 Q543.4014,817.3828 545.9082,817.3828 Q546.6138,817.3828 547.2612,817.5322 Q547.9087,817.6816 548.4731,817.9805 L548.4731,820.7031 Q547.8423,820.1221 547.2488,819.8523 Q546.6553,819.5825 546.0244,819.5825 Q544.6797,819.5825 543.9949,820.6492 Q543.3101,821.7158 543.3101,823.8159 Q543.3101,825.9077 543.9949,826.9744 Q544.6797,828.041 546.0244,828.041 Q546.6553,828.041 547.2488,827.7712 Q547.8423,827.5015 548.4731,826.9204 Z " fill="#000000"/><text fill="#000000" font-family="sans-serif" font-size="14" lengthAdjust="spacing" textLength="90" x="560" y="828.791">CashAccount</text><line style="stroke:#181818;stroke-width:0.5;" x1="532" x2="652" y1="839.5" y2="839.5"/><line style="stroke:#181818;stroke-width:0.5;" x1="532" x2="652" y1="847.5" y2="847.5"/></g><!--MD5=[f55d592c5130daf0ceebcd2d990036d6]
class Bank--><g id="elem_Bank"><rect codeLine="48" fill="#F1F1F1" height="80.9766" id="Bank" rx="2.5" ry="2.5" style="stroke:#181818;stroke-width:0.5;" width="255" x="378.5" y="437"/><ellipse cx="485.25" cy="453" fill="#ADD1B2" rx="11" ry="11" style="stroke:#181818;stroke-width:1.0;"/><path d="M487.7231,459.1431 Q487.1421,459.4419 486.5029,459.5913 Q485.8638,459.7407 485.1582,459.7407 Q482.6514,459.7407 481.3315,458.0889 Q480.0117,456.437 480.0117,453.3159 Q480.0117,450.1865 481.3315,448.5347 Q482.6514,446.8828 485.1582,446.8828 Q485.8638,446.8828 486.5112,447.0322 Q487.1587,447.1816 487.7231,447.4805 L487.7231,450.2031 Q487.0923,449.6221 486.4988,449.3523 Q485.9053,449.0825 485.2744,449.0825 Q483.9297,449.0825 483.2449,450.1492 Q482.5601,451.2158 482.5601,453.3159 Q482.5601,455.4077 483.2449,456.4744 Q483.9297,457.541 485.2744,457.541 Q485.9053,457.541 486.4988,457.2712 Q487.0923,457.0015 487.7231,456.4204 Z " fill="#000000"/><text fill="#000000" font-family="sans-serif" font-size="14" lengthAdjust="spacing" textLength="33" x="505.75" y="458.291">Bank</text><line style="stroke:#181818;stroke-width:0.5;" x1="379.5" x2="632.5" y1="469" y2="469"/><ellipse cx="389.5" cy="482.7441" fill="none" rx="3" ry="3" style="stroke:#038048;stroke-width:1.0;"/><text fill="#000000" font-family="sans-serif" font-size="14" lengthAdjust="spacing" textLength="200" x="398.5" y="486.5352">accounts: Dict[uuid, Account]</text><ellipse cx="389.5" cy="499.2324" fill="none" rx="3" ry="3" style="stroke:#038048;stroke-width:1.0;"/><text fill="#000000" font-family="sans-serif" font-size="14" lengthAdjust="spacing" textLength="229" x="398.5" y="503.0234">unathorized_withdrawal_limit: int</text><line style="stroke:#181818;stroke-width:0.5;" x1="379.5" x2="632.5" y1="509.9766" y2="509.9766"/></g><!--MD5=[4555bb1b0911a5adf28ce6dbe60fed2e]
class Transaction--><g id="elem_Transaction"><rect codeLine="58" fill="#F1F1F1" height="163.418" id="Transaction" rx="2.5" ry="2.5" style="stroke:#181818;stroke-width:0.5;" width="283" x="784.5" y="932"/><ellipse cx="881.25" cy="948" fill="#ADD1B2" rx="11" ry="11" style="stroke:#181818;stroke-width:1.0;"/><path d="M883.7231,954.1431 Q883.1421,954.4419 882.5029,954.5913 Q881.8638,954.7407 881.1582,954.7407 Q878.6514,954.7407 877.3315,953.0889 Q876.0117,951.437 876.0117,948.3159 Q876.0117,945.1865 877.3315,943.5347 Q878.6514,941.8828 881.1582,941.8828 Q881.8638,941.8828 882.5112,942.0322 Q883.1587,942.1816 883.7231,942.4805 L883.7231,945.2031 Q883.0923,944.6221 882.4988,944.3523 Q881.9053,944.0825 881.2744,944.0825 Q879.9297,944.0825 879.2449,945.1492 Q878.5601,946.2158 878.5601,948.3159 Q878.5601,950.4077 879.2449,951.4744 Q879.9297,952.541 881.2744,952.541 Q881.9053,952.541 882.4988,952.2712 Q883.0923,952.0015 883.7231,951.4204 Z " fill="#000000"/><text fill="#000000" font-family="sans-serif" font-size="14" lengthAdjust="spacing" textLength="81" x="901.75" y="953.291">Transaction</text><line style="stroke:#181818;stroke-width:0.5;" x1="785.5" x2="1066.5" y1="964" y2="964"/><ellipse cx="795.5" cy="977.7441" fill="none" rx="3" ry="3" style="stroke:#038048;stroke-width:1.0;"/><text fill="#000000" font-family="sans-serif" font-size="14" lengthAdjust="spacing" textLength="100" x="804.5" y="981.5352">From: Account</text><ellipse cx="795.5" cy="994.2324" fill="none" rx="3" ry="3" style="stroke:#038048;stroke-width:1.0;"/><text fill="#000000" font-family="sans-serif" font-size="14" lengthAdjust="spacing" textLength="82" x="804.5" y="998.0234">To: Account</text><ellipse cx="795.5" cy="1010.7207" fill="none" rx="3" ry="3" style="stroke:#038048;stroke-width:1.0;"/><text fill="#000000" font-family="sans-serif" font-size="14" lengthAdjust="spacing" textLength="79" x="804.5" y="1014.5117">amount: int</text><ellipse cx="795.5" cy="1027.209" fill="none" rx="3" ry="3" style="stroke:#038048;stroke-width:1.0;"/><text fill="#000000" font-family="sans-serif" font-size="14" lengthAdjust="spacing" textLength="98" x="804.5" y="1031">date: datetime</text><line style="stroke:#181818;stroke-width:0.5;" x1="785.5" x2="1066.5" y1="1037.9531" y2="1037.9531"/><ellipse cx="795.5" cy="1051.6973" fill="#84BE84" rx="3" ry="3" style="stroke:#038048;stroke-width:1.0;"/><text fill="#000000" font-family="sans-serif" font-size="14" lengthAdjust="spacing" textLength="155" x="804.5" y="1055.4883">perform(): Transaction</text><ellipse cx="795.5" cy="1068.1855" fill="#84BE84" rx="3" ry="3" style="stroke:#038048;stroke-width:1.0;"/><text fill="#000000" font-family="sans-serif" font-size="14" lengthAdjust="spacing" textLength="142" x="804.5" y="1071.9766">cancel(): Transaction</text><ellipse cx="795.5" cy="1084.6738" fill="#84BE84" rx="3" ry="3" style="stroke:#038048;stroke-width:1.0;"/><text fill="#000000" font-family="sans-serif" font-size="14" lengthAdjust="spacing" textLength="257" x="804.5" y="1088.4648">check_permissions(): BoolWithReason</text></g><!--MD5=[4c7a4844927343388be36e4ab2f98062]
class TransactionList--><g id="elem_TransactionList"><rect codeLine="71" fill="#F1F1F1" height="80.9766" id="TransactionList" rx="2.5" ry="2.5" style="stroke:#181818;stroke-width:0.5;" width="282" x="688" y="791"/><ellipse cx="703" cy="807" fill="#ADD1B2" rx="11" ry="11" style="stroke:#181818;stroke-width:1.0;"/><path d="M705.4731,813.1431 Q704.8921,813.4419 704.2529,813.5913 Q703.6138,813.7407 702.9082,813.7407 Q700.4014,813.7407 699.0815,812.0889 Q697.7617,810.437 697.7617,807.3159 Q697.7617,804.1865 699.0815,802.5347 Q700.4014,800.8828 702.9082,800.8828 Q703.6138,800.8828 704.2612,801.0322 Q704.9087,801.1816 705.4731,801.4805 L705.4731,804.2031 Q704.8423,803.6221 704.2488,803.3523 Q703.6553,803.0825 703.0244,803.0825 Q701.6797,803.0825 700.9949,804.1492 Q700.3101,805.2158 700.3101,807.3159 Q700.3101,809.4077 700.9949,810.4744 Q701.6797,811.541 703.0244,811.541 Q703.6553,811.541 704.2488,811.2712 Q704.8423,811.0015 705.4731,810.4204 Z " fill="#000000"/><text fill="#000000" font-family="sans-serif" font-size="14" lengthAdjust="spacing" textLength="250" x="717" y="812.291">TransactionList (История операций)</text><line style="stroke:#181818;stroke-width:0.5;" x1="689" x2="969" y1="823" y2="823"/><ellipse cx="699" cy="836.7441" fill="none" rx="3" ry="3" style="stroke:#038048;stroke-width:1.0;"/><text fill="#000000" font-family="sans-serif" font-size="14" lengthAdjust="spacing" textLength="204" x="708" y="840.5352">transactions: Set[Transaction]</text><line style="stroke:#181818;stroke-width:0.5;" x1="689" x2="969" y1="847.4883" y2="847.4883"/><ellipse cx="699" cy="861.2324" fill="#84BE84" rx="3" ry="3" style="stroke:#038048;stroke-width:1.0;"/><text fill="#000000" font-family="sans-serif" font-size="14" lengthAdjust="spacing" textLength="183" x="708" y="865.0234">append(transaction): None</text></g><!--MD5=[e25e537aaec20b73800c2d0d6354c76b]
reverse link ClientFacade to Client--><g id="link_ClientFacade_Client"><path codeLine="11" d="M506,143.66 C506,160.6 506,178.92 506,196.58 " fill="none" id="ClientFacade-backto-Client" style="stroke:#181818;stroke-width:1.0;"/><polygon fill="#181818" points="506,139,502,148,506,144,510,148,506,139" style="stroke:#181818;stroke-width:1.0;"/></g><!--MD5=[5316e6964bb917da2e29ec06db2a4839]
reverse link Account to DebitAccount--><g id="link_Account_DebitAccount"><path codeLine="33" d="M330.17,718.83 C272.01,740.48 207.28,765.71 149,791 C137.63,795.93 125.56,801.64 114.33,807.16 " fill="none" id="Account-backto-DebitAccount" style="stroke:#181818;stroke-width:1.0;"/><polygon fill="none" points="327.43,712.38,348.62,712,332.29,725.51,327.43,712.38" style="stroke:#181818;stroke-width:1.0;"/></g><!--MD5=[3980083d2a82836220e3818e53d08ad5]
reverse link Account to DepositAccount--><g id="link_Account_DepositAccount"><path codeLine="34" d="M403.72,722.91 C363.47,749.04 319.18,777.8 286.51,799 " fill="none" id="Account-backto-DepositAccount" style="stroke:#181818;stroke-width:1.0;"/><polygon fill="none" points="399.72,717.16,420.3,712.14,407.34,728.9,399.72,717.16" style="stroke:#181818;stroke-width:1.0;"/></g><!--MD5=[36f3e4cc4c35ae4b51a1d80c48a97294]
reverse link Account to CreditAccount--><g id="link_Account_CreditAccount"><path codeLine="35" d="M469.6,730.14 C459.33,750.93 448.53,772.77 439.65,790.75 " fill="none" id="Account-backto-CreditAccount" style="stroke:#181818;stroke-width:1.0;"/><polygon fill="none" points="463.22,727.26,478.35,712.43,475.77,733.47,463.22,727.26" style="stroke:#181818;stroke-width:1.0;"/></g><!--MD5=[454b65c063555c30b33cacf01cddc11a]
reverse link Account to CashAccount--><g id="link_Account_CashAccount"><path codeLine="36" d="M542.44,730.23 C556.09,757.85 570.65,787.3 580.43,807.08 " fill="none" id="Account-backto-CashAccount" style="stroke:#181818;stroke-width:1.0;"/><polygon fill="none" points="536.23,733.47,533.65,712.43,548.78,727.26,536.23,733.47" style="stroke:#181818;stroke-width:1.0;"/></g><!--MD5=[61abc0e6878da33f7de6453297d54f72]
reverse link Client to Bank--><g id="link_Client_Bank"><path codeLine="53" d="M506,383.67 C506,402.5 506,421.25 506,436.92 " fill="none" id="Client-backto-Bank" style="stroke:#181818;stroke-width:1.0;"/><polygon fill="#181818" points="506,378.8,502,387.8,506,383.8,510,387.8,506,378.8" style="stroke:#181818;stroke-width:1.0;"/></g><!--MD5=[df31310f88c89a50785f4fea2c961cfa]
reverse link Bank to Account--><g id="link_Bank_Account"><path codeLine="54" d="M506,532.73 C506,553.67 506,577.62 506,598.71 " fill="none" id="Bank-backto-Account" style="stroke:#181818;stroke-width:1.0;"/><polygon fill="#181818" points="506,519.95,502,525.95,506,531.95,510,525.95,506,519.95" style="stroke:#181818;stroke-width:1.0;"/></g><!--MD5=[250e1b3ef8c2b165e6136ea59ca9b00d]
reverse link Client to Account--><g id="link_Client_Account"><path codeLine="55" d="M389.57,388.46 C378.01,403.52 367.98,419.81 361,437 C347.45,470.35 346.72,484.95 361,518 C374.51,549.26 399.08,576.68 424.22,598.57 " fill="none" id="Client-backto-Account" style="stroke:#181818;stroke-width:1.0;"/><polygon fill="#181818" points="397.73,378.36,390.8479,380.5134,390.1887,387.6943,397.0708,385.5409,397.73,378.36" style="stroke:#181818;stroke-width:1.0;"/></g><!--MD5=[468532d66a291568ccb9dd1ed2ab1262]
reverse link Account to Client--><g id="link_Account_Client"><path codeLine="56" d="M592.49,594.4 C615.94,573.23 638.34,547.31 651,518 C665.28,484.95 664.55,470.35 651,437 C642.24,415.43 628.69,395.27 613.31,377.18 " fill="none" id="Account-backto-Client" style="stroke:#181818;stroke-width:1.0;"/><polygon fill="#181818" points="588.92,597.57,598.3098,594.5982,592.6633,594.2553,593.0062,588.6088,588.92,597.57" style="stroke:#181818;stroke-width:1.0;"/></g><!--MD5=[ea3341ddf5b8bc2bd33f110c0cbea934]
reverse link Transaction to Account--><g id="link_Transaction_Account"><path codeLine="69" d="M982.68,926.12 C1003.88,882.12 1016.48,829.85 987,791 C953.39,746.7 832.74,713.03 720.69,690.46 " fill="none" id="Transaction-backto-Account" style="stroke:#181818;stroke-width:1.0;"/><polygon fill="#181818" points="980.58,930.37,988.1505,924.0703,982.7932,925.8865,980.9769,920.5291,980.58,930.37" style="stroke:#181818;stroke-width:1.0;"/><text fill="#000000" font-family="sans-serif" font-size="13" lengthAdjust="spacing" textLength="8" x="728.821" y="690.1444">2</text></g><!--MD5=[2416cfaa8709f19509bdf685390a8bd0]
reverse link TransactionList to Transaction--><g id="link_TransactionList_Transaction"><path codeLine="76" d="M857.22,884.86 C865.12,899.53 873.9,915.82 882.47,931.72 " fill="none" id="TransactionList-backto-Transaction" style="stroke:#181818;stroke-width:1.0;"/><polygon fill="#181818" points="851.25,873.78,850.5706,880.959,856.9361,884.3473,857.6155,877.1683,851.25,873.78" style="stroke:#181818;stroke-width:1.0;"/></g><!--MD5=[6c1b1be26e0ee3321221a85d26c26512]
reverse link Account to TransactionList--><g id="link_Account_TransactionList"><path codeLine="77" d="M613.38,714.35 C659.81,739.36 712.97,768 754.9,790.58 " fill="none" id="Account-backto-TransactionList" style="stroke:#181818;stroke-width:1.0;"/><polygon fill="#181818" points="609.09,712.03,615.1254,719.813,613.4946,714.3962,618.9114,712.7655,609.09,712.03" style="stroke:#181818;stroke-width:1.0;"/></g><!--MD5=[f2bd1b041b56d5a190ee9469dd786ca7]
@startuml classes_uml

class ClientFacade {
    + client: Client

    + create_account(): Account
    + withdraw(amount): Transaction
    + deposit(amount): Transaction
    + transfer(amount, from_account, to_account_id, bank): Transaction
}

ClientFacade <- - Client

class Client {
    + bank: Bank
    + name: str
    + surname: str
    + passport: str | None
    + address: str | None
    + accounts: Dict[uuid, Account]

    + create_account(): Account
    + check_withdraw_permissions(transaction): BoolWithReason
}

interface Account {
    + id: uuid
    + client: Client
    + balance: int

    + check_withdraw_permissions(transaction): BoolWithReason
}

Account <|- - DebitAccount
Account <|- - DepositAccount
Account <|- - CreditAccount
Account <|- - CashAccount

class DepositAccount {
    end_date: datetime
}

class CreditAccount {
    + credit_limit: int
    + interest_rate: float
}


class Bank {
    + accounts: Dict[uuid, Account]
    + unathorized_withdrawal_limit: int
}

Client <- - Bank
Bank *- - Account
Client *- - Account
Account <- - Client

class Transaction {
    + From: Account
    + To: Account
    + amount: int
    + date: datetime

    + perform(): Transaction
    + cancel(): Transaction
    + check_permissions(): BoolWithReason
}

Transaction <- - "2" Account

class "TransactionList (История операций)" as TransactionList {
    + transactions: Set[Transaction]
    + append(transaction): None
}

TransactionList *- - Transaction
Account <- - TransactionList

@enduml

PlantUML version 1.2022.7(Mon Aug 22 20:01:30 MSK 2022)
(GPL source distribution)
Java Runtime: OpenJDK Runtime Environment
JVM: OpenJDK 64-Bit Server VM
Default Encoding: UTF-8
Language: ru
Country: RU
--></g></svg>