<?xml version="1.0" encoding="UTF-8" standalone="no"?><svg xmlns="http://www.w3.org/2000/svg" xmlns:xlink="http://www.w3.org/1999/xlink" contentStyleType="text/css" height="428px" preserveAspectRatio="none" style="width:1405px;height:428px;background:#FFFFFF;" version="1.1" viewBox="0 0 1405 428" width="1405px" zoomAndPan="magnify"><defs/><g><rect fill="none" height="26.4883" id="_title" style="stroke:none;stroke-width:1.0;" width="176" x="607.75" y="5"/><text fill="#000000" font-family="sans-serif" font-size="14" font-weight="bold" lengthAdjust="spacing" textLength="166" x="612.75" y="23.5352">Simplified Architecture</text><!--MD5=[40fe75a421ad1d20add8db3f112b2731]
cluster TelegramBot--><g id="cluster_TelegramBot"><path d="M108,43.4883 L206,43.4883 A3.75,3.75 0 0 1 208.5,45.9883 L215.5,65.9766 L542,65.9766 A2.5,2.5 0 0 1 544.5,68.4766 L544.5,418.9883 A2.5,2.5 0 0 1 542,421.4883 L108,421.4883 A2.5,2.5 0 0 1 105.5,418.9883 L105.5,45.9883 A2.5,2.5 0 0 1 108,43.4883 " fill="none" style="stroke:#000000;stroke-width:1.5;"/><line style="stroke:#000000;stroke-width:1.5;" x1="105.5" x2="215.5" y1="65.9766" y2="65.9766"/><text fill="#000000" font-family="sans-serif" font-size="14" font-weight="bold" lengthAdjust="spacing" textLength="97" x="109.5" y="59.0234">Telegram bot</text></g><!--MD5=[46b7b79a6a9e0929cc190c549fe08f75]
cluster Dialogs--><g id="cluster_Dialogs"><path d="M243,94.4883 L299,94.4883 A3.75,3.75 0 0 1 301.5,96.9883 L308.5,116.9766 L510,116.9766 A2.5,2.5 0 0 1 512.5,119.4766 L512.5,386.9883 A2.5,2.5 0 0 1 510,389.4883 L243,389.4883 A2.5,2.5 0 0 1 240.5,386.9883 L240.5,96.9883 A2.5,2.5 0 0 1 243,94.4883 " fill="none" style="stroke:#000000;stroke-width:1.5;"/><line style="stroke:#000000;stroke-width:1.5;" x1="240.5" x2="308.5" y1="116.9766" y2="116.9766"/><text fill="#000000" font-family="sans-serif" font-size="14" font-weight="bold" lengthAdjust="spacing" textLength="55" x="244.5" y="110.0234">Dialogs</text></g><!--MD5=[99f648530948c7a4513d101be9e0aa05]
cluster json_bridge--><g id="cluster_json_bridge"><path d="M661,94.4883 L746,94.4883 A3.75,3.75 0 0 1 748.5,96.9883 L755.5,116.9766 L918,116.9766 A2.5,2.5 0 0 1 920.5,119.4766 L920.5,386.9883 A2.5,2.5 0 0 1 918,389.4883 L661,389.4883 A2.5,2.5 0 0 1 658.5,386.9883 L658.5,96.9883 A2.5,2.5 0 0 1 661,94.4883 " fill="none" style="stroke:#000000;stroke-width:1.5;"/><line style="stroke:#000000;stroke-width:1.5;" x1="658.5" x2="755.5" y1="116.9766" y2="116.9766"/><text fill="#000000" font-family="sans-serif" font-size="14" font-weight="bold" lengthAdjust="spacing" textLength="84" x="662.5" y="110.0234">json_bridge</text></g><!--MD5=[01435ace8273dc3cae88e7f376e4d373]
cluster core--><g id="cluster_core"><path d="M996,175.4883 L1027,175.4883 A3.75,3.75 0 0 1 1029.5,177.9883 L1036.5,197.9766 L1396,197.9766 A2.5,2.5 0 0 1 1398.5,200.4766 L1398.5,386.9883 A2.5,2.5 0 0 1 1396,389.4883 L996,389.4883 A2.5,2.5 0 0 1 993.5,386.9883 L993.5,177.9883 A2.5,2.5 0 0 1 996,175.4883 " fill="none" style="stroke:#000000;stroke-width:1.5;"/><line style="stroke:#000000;stroke-width:1.5;" x1="993.5" x2="1036.5" y1="197.9766" y2="197.9766"/><text fill="#000000" font-family="sans-serif" font-size="14" font-weight="bold" lengthAdjust="spacing" textLength="30" x="997.5" y="191.0234">core</text></g><!--MD5=[87a2d5f574845f7caa5cba18ae175996]
entity botpy--><g id="elem_botpy"><rect fill="#F1F1F1" height="46.4883" rx="2.5" ry="2.5" style="stroke:#181818;stroke-width:0.5;" width="83" x="121.5" y="358.2483"/><rect fill="#F1F1F1" height="10" style="stroke:#181818;stroke-width:0.5;" width="15" x="184.5" y="363.2483"/><rect fill="#F1F1F1" height="2" style="stroke:#181818;stroke-width:0.5;" width="4" x="182.5" y="365.2483"/><rect fill="#F1F1F1" height="2" style="stroke:#181818;stroke-width:0.5;" width="4" x="182.5" y="369.2483"/><text fill="#000000" font-family="sans-serif" font-size="14" lengthAdjust="spacing" textLength="43" x="136.5" y="391.7834">bot.py</text></g><!--MD5=[e29493a8775effcafa538aa0485107d1]
entity auth--><g id="elem_auth"><rect fill="#F1F1F1" height="46.4883" rx="2.5" ry="2.5" style="stroke:#181818;stroke-width:0.5;" width="221" x="266" y="137.2483"/><rect fill="#F1F1F1" height="10" style="stroke:#181818;stroke-width:0.5;" width="15" x="467" y="142.2483"/><rect fill="#F1F1F1" height="2" style="stroke:#181818;stroke-width:0.5;" width="4" x="465" y="144.2483"/><rect fill="#F1F1F1" height="2" style="stroke:#181818;stroke-width:0.5;" width="4" x="465" y="148.2483"/><text fill="#000000" font-family="sans-serif" font-size="14" lengthAdjust="spacing" textLength="181" x="281" y="170.7834">Сценарий 1: авторизация</text></g><!--MD5=[c6640432ca9741356eae9bca9c5ad3a3]
entity open_account--><g id="elem_open_account"><rect fill="#F1F1F1" height="46.4883" rx="2.5" ry="2.5" style="stroke:#181818;stroke-width:0.5;" width="224" x="264.5" y="218.2483"/><rect fill="#F1F1F1" height="10" style="stroke:#181818;stroke-width:0.5;" width="15" x="468.5" y="223.2483"/><rect fill="#F1F1F1" height="2" style="stroke:#181818;stroke-width:0.5;" width="4" x="466.5" y="225.2483"/><rect fill="#F1F1F1" height="2" style="stroke:#181818;stroke-width:0.5;" width="4" x="466.5" y="229.2483"/><text fill="#000000" font-family="sans-serif" font-size="14" lengthAdjust="spacing" textLength="184" x="279.5" y="251.7834">Сценарий 2: Открыть счёт</text></g><!--MD5=[607727786122dab572cded36458ed780]
entity scenario3--><g id="elem_scenario3"><rect fill="#F1F1F1" height="46.4883" rx="2.5" ry="2.5" style="stroke:#181818;stroke-width:0.5;" width="144" x="304.5" y="299.2483"/><rect fill="#F1F1F1" height="10" style="stroke:#181818;stroke-width:0.5;" width="15" x="428.5" y="304.2483"/><rect fill="#F1F1F1" height="2" style="stroke:#181818;stroke-width:0.5;" width="4" x="426.5" y="306.2483"/><rect fill="#F1F1F1" height="2" style="stroke:#181818;stroke-width:0.5;" width="4" x="426.5" y="310.2483"/><text fill="#000000" font-family="sans-serif" font-size="14" lengthAdjust="spacing" textLength="104" x="319.5" y="332.7834">Сценарий 3: ...</text></g><!--MD5=[58ea5e958aadfe54f7099f5fbee32b37]
entity get_bank_by_name--><g id="elem_get_bank_by_name"><rect fill="#F1F1F1" height="46.4883" rx="2.5" ry="2.5" style="stroke:#181818;stroke-width:0.5;" width="171" x="704" y="137.2483"/><rect fill="#F1F1F1" height="10" style="stroke:#181818;stroke-width:0.5;" width="15" x="855" y="142.2483"/><rect fill="#F1F1F1" height="2" style="stroke:#181818;stroke-width:0.5;" width="4" x="853" y="144.2483"/><rect fill="#F1F1F1" height="2" style="stroke:#181818;stroke-width:0.5;" width="4" x="853" y="148.2483"/><text fill="#000000" font-family="sans-serif" font-size="14" lengthAdjust="spacing" textLength="131" x="719" y="170.7834">get_bank_by_name</text></g><!--MD5=[8364efcacad48a00c463b82a289c19d9]
entity get_client_by_id--><g id="elem_get_client_by_id"><rect fill="#F1F1F1" height="46.4883" rx="2.5" ry="2.5" style="stroke:#181818;stroke-width:0.5;" width="149" x="715" y="218.2483"/><rect fill="#F1F1F1" height="10" style="stroke:#181818;stroke-width:0.5;" width="15" x="844" y="223.2483"/><rect fill="#F1F1F1" height="2" style="stroke:#181818;stroke-width:0.5;" width="4" x="842" y="225.2483"/><rect fill="#F1F1F1" height="2" style="stroke:#181818;stroke-width:0.5;" width="4" x="842" y="229.2483"/><text fill="#000000" font-family="sans-serif" font-size="14" lengthAdjust="spacing" textLength="109" x="730" y="251.7834">get_client_by_id</text></g><!--MD5=[5e8470addbb169cd5addac3639b1b7ec]
entity call_method--><g id="elem_call_method"><rect fill="#F1F1F1" height="46.4883" rx="2.5" ry="2.5" style="stroke:#181818;stroke-width:0.5;" width="214" x="682.5" y="299.2483"/><rect fill="#F1F1F1" height="10" style="stroke:#181818;stroke-width:0.5;" width="15" x="876.5" y="304.2483"/><rect fill="#F1F1F1" height="2" style="stroke:#181818;stroke-width:0.5;" width="4" x="874.5" y="306.2483"/><rect fill="#F1F1F1" height="2" style="stroke:#181818;stroke-width:0.5;" width="4" x="874.5" y="310.2483"/><text fill="#000000" font-family="sans-serif" font-size="14" lengthAdjust="spacing" textLength="174" x="697.5" y="332.7834">вызвать метод из core.py</text></g><!--MD5=[7cdf18a190524a0ae9aecfb67faf0cde]
entity Конструкторы--><g id="elem_Конструкторы"><rect fill="#F1F1F1" height="46.4883" rx="2.5" ry="2.5" style="stroke:#181818;stroke-width:0.5;" width="140" x="1126" y="218.2483"/><rect fill="#F1F1F1" height="10" style="stroke:#181818;stroke-width:0.5;" width="15" x="1246" y="223.2483"/><rect fill="#F1F1F1" height="2" style="stroke:#181818;stroke-width:0.5;" width="4" x="1244" y="225.2483"/><rect fill="#F1F1F1" height="2" style="stroke:#181818;stroke-width:0.5;" width="4" x="1244" y="229.2483"/><text fill="#000000" font-family="sans-serif" font-size="14" lengthAdjust="spacing" textLength="100" x="1141" y="251.7834">Конструкторы</text></g><!--MD5=[f90016faafed548a283f15cb65278835]
entity Логика разрешений на снятие / пополнение--><g id="elem_Логика разрешений на снятие / пополнение"><rect fill="#F1F1F1" height="46.4883" rx="2.5" ry="2.5" style="stroke:#181818;stroke-width:0.5;" width="357" x="1017.5" y="299.2483"/><rect fill="#F1F1F1" height="10" style="stroke:#181818;stroke-width:0.5;" width="15" x="1354.5" y="304.2483"/><rect fill="#F1F1F1" height="2" style="stroke:#181818;stroke-width:0.5;" width="4" x="1352.5" y="306.2483"/><rect fill="#F1F1F1" height="2" style="stroke:#181818;stroke-width:0.5;" width="4" x="1352.5" y="310.2483"/><text fill="#000000" font-family="sans-serif" font-size="14" lengthAdjust="spacing" textLength="317" x="1032.5" y="332.7834">Логика разрешений на снятие / пополнение</text></g><!--MD5=[fee662a292a0353a69bd162820bae93b]
entity User--><g id="elem_User"><ellipse cx="33" cy="359.2483" fill="#F1F1F1" rx="16" ry="16" style="stroke:#181818;stroke-width:1.5;"/><path d="M33,379.2483 C37,379.2483 40,379.2483 44,375.2483 C52,375.2483 60,383.2483 60,391.2483 L60,395.2483 C60,399.2483 56,403.2483 52,403.2483 L14,403.2483 C10,403.2483 6,399.2483 6,395.2483 L6,391.2483 C6,383.2483 14,375.2483 22,375.2483 C26,379.2483 29,379.2483 33,379.2483 " fill="#F1F1F1" style="stroke:#181818;stroke-width:1.5;"/><text fill="#000000" font-family="sans-serif" font-size="14" lengthAdjust="spacing" textLength="31" x="17.5" y="418.2834">User</text></g><!--MD5=[a9a73c7c733563b3cf6047adc46e4655]
link open_account to auth--><!--MD5=[9003e3696f9da1619906aed2eeb7f353]
link scenario3 to open_account--><!--MD5=[98274c654ce2f9faddbc196811fb7986]
link botpy to Dialogs--><g id="link_botpy_Dialogs"><path d="M204.78,381.4883 C212.3425,381.4883 220.6287,381.4883 229.3461,381.4883 C231.5255,381.4883 233.7318,381.4883 235.9604,381.4883 C237.0748,381.4883 238.1947,381.4883 239.3196,381.4883 C239.6009,381.4883 239.8824,381.4883 240.1643,381.4883 " fill="none" id="botpy-to-Dialogs" style="stroke:#181818;stroke-width:1.0;"/><polygon fill="#181818" points="240.1643,381.4883,231.1643,377.4883,235.1643,381.4883,231.1643,385.4883,240.1643,381.4883" style="stroke:#181818;stroke-width:1.0;"/></g><!--MD5=[d4f3dc7e225f1b31d0c79bdbf0695e3c]
link User to botpy--><g id="link_User_botpy"><path d="M61.77,381.4883 C77.36,381.4883 97.23,381.4883 115.16,381.4883 " fill="none" id="User-to-botpy" style="stroke:#181818;stroke-width:1.0;"/><polygon fill="#181818" points="120.15,381.4883,111.15,377.4883,115.15,381.4883,111.15,385.4883,120.15,381.4883" style="stroke:#181818;stroke-width:1.0;"/></g><!--MD5=[c05b19599b5f9701eba8e757932c8236]
link get_client_by_id to get_bank_by_name--><!--MD5=[d1655d390665d740af99095f1d8397f3]
link call_method to get_client_by_id--><!--MD5=[65bc84ac600b25871c4079b8a288e075]
link Dialogs to json_bridge--><g id="link_Dialogs_json_bridge"><path d="M513.1578,381.4883 C514.6542,381.4883 516.1562,381.4883 517.6634,381.4883 C520.6779,381.4883 523.7133,381.4883 526.7667,381.4883 C532.8734,381.4883 539.0519,381.4883 545.2782,381.4883 C557.7308,381.4883 570.3748,381.4883 583.0188,381.4883 C608.3066,381.4883 633.594,381.4883 657.3494,381.4883 C657.7206,381.4883 658.0914,381.4883 658.4618,381.4883 " fill="none" id="Dialogs-to-json_bridge" style="stroke:#181818;stroke-width:1.0;"/><polygon fill="#181818" points="658.4618,381.4883,649.4618,377.4883,653.4618,381.4883,649.4618,385.4883,658.4618,381.4883" style="stroke:#181818;stroke-width:1.0;"/></g><!--MD5=[cdb86d17400cdb02058b02fe8771b835]
link json_bridge to core--><g id="link_json_bridge_core"><path d="M921.8079,381.4883 C922.5415,381.4883 923.2764,381.4883 924.0128,381.4883 C925.4855,381.4883 926.9638,381.4883 928.4472,381.4883 C931.414,381.4883 934.4014,381.4883 937.4064,381.4883 C943.4166,381.4883 949.4973,381.4883 955.6252,381.4883 C967.8808,381.4883 980.3248,381.4883 992.7688,381.4883 " fill="none" id="json_bridge-to-core" style="stroke:#181818;stroke-width:1.0;"/><polygon fill="#181818" points="992.7688,381.4883,983.7688,377.4883,987.7688,381.4883,983.7688,385.4883,992.7688,381.4883" style="stroke:#181818;stroke-width:1.0;"/></g><!--MD5=[acf02f2fae7b6a8c8af8f1312ecbc468]
@startuml architecture

title Simplified Architecture

skinparam actorStyle awesome
left to right direction

actor User

package "Telegram bot" as TelegramBot {
    component "bot.py" as botpy
    package Dialogs {
        component "Сценарий 1: авторизация" as auth
        component "Сценарий 2: Открыть счёт" as open_account
        component "Сценарий 3: ..." as scenario3

        open_account -[hidden]> auth
        scenario3 -[hidden]> open_account
    }
    botpy - -> Dialogs
}

User - -> botpy

package json_bridge {
    component get_bank_by_name
    component get_client_by_id
    component "вызвать метод из core.py" as call_method

    get_client_by_id -[hidden]> get_bank_by_name
    call_method -[hidden]> get_client_by_id
}

Dialogs - - - -> json_bridge

package core {
    component "Конструкторы"
    component "Логика разрешений на снятие / пополнение"
}

json_bridge - - -> core

@enduml

PlantUML version 1.2022.7(Mon Aug 22 20:01:30 MSK 2022)
(GPL source distribution)
Java Runtime: OpenJDK Runtime Environment
JVM: OpenJDK 64-Bit Server VM
Default Encoding: UTF-8
Language: ru
Country: RU
--></g></svg>